<svg width="24" height="19" viewBox="0 0 24 19" fill="none" xmlns="http://www.w3.org/2000/svg">
<path d="M24 1.2722C23.9768 1.2142 23.9505 1.1575 23.9317 1.09819C23.8373 0.780523 23.6477 0.502606 23.3907 0.30503C23.1337 0.107455 22.8227 0.000574156 22.5032 0C22.0266 0 21.5506 0 21.0741 0H1.602C0.787847 0 0.19101 0.475773 0.0331895 1.24874C-0.0113521 1.46856 -0.00975262 1.6958 0.0378778 1.91493C0.0855082 2.13405 0.178047 2.33988 0.309166 2.51835C0.440285 2.69682 0.606891 2.84372 0.797594 2.949C0.988297 3.05428 1.1986 3.11547 1.41412 3.12837C1.51558 3.13424 1.61703 3.13163 1.71849 3.13163C8.51417 3.13163 15.3086 3.12251 22.1043 3.14271C23.0474 3.14336 23.7069 2.83183 24 1.85877V1.2722Z" fill="white"/>
<path d="M24 9.09313C23.9712 9.02014 23.9374 8.94779 23.9142 8.87349C23.8155 8.57079 23.629 8.30738 23.3805 8.11957C23.1319 7.93176 22.8335 7.82878 22.5264 7.82484C22.011 7.81702 21.4955 7.82484 20.9801 7.82484C14.5207 7.82484 8.06137 7.82484 1.602 7.82484C0.78785 7.82484 0.191639 8.30061 0.0331924 9.07358C-0.0107361 9.29313 -0.00867154 9.51995 0.0392453 9.73859C0.0871621 9.95723 0.179805 10.1626 0.310862 10.3406C0.441919 10.5186 0.608309 10.6651 0.798696 10.7702C0.989083 10.8752 1.19899 10.9363 1.41412 10.9493C1.51558 10.9552 1.61704 10.9526 1.71912 10.9526C8.51417 10.9526 15.3092 10.9434 22.1043 10.9636C23.0474 10.9636 23.7069 10.6547 24 9.68166V9.09313Z" fill="white"/>
<path d="M24 16.9141C23.9712 16.8411 23.9374 16.7687 23.9142 16.6944C23.8155 16.3917 23.629 16.1283 23.3805 15.9405C23.1319 15.7527 22.8335 15.6497 22.5264 15.6458C22.011 15.6379 21.4955 15.6458 20.9801 15.6458H1.602C0.78785 15.6458 0.191639 16.1215 0.0331924 16.8945C-0.0107361 17.1141 -0.00867154 17.3409 0.0392453 17.5595C0.0871621 17.7782 0.179805 17.9835 0.310862 18.1615C0.441919 18.3395 0.608309 18.486 0.798696 18.5911C0.989083 18.6961 1.19899 18.7572 1.41412 18.7702C1.51558 18.7761 1.61704 18.7702 1.71912 18.7702C8.51417 18.7702 15.3092 18.7611 22.1043 18.7813C23.0474 18.7813 23.7069 18.4724 24 17.4993V16.9141Z" fill="white"/>
</svg>
