<svg width="18" height="18" viewBox="0 0 18 18" fill="none" xmlns="http://www.w3.org/2000/svg">
<path d="M5.33333 0.75C2.80608 0.75 0.75 2.80608 0.75 5.33333V12.6667C0.75 15.1939 2.80608 17.25 5.33333 17.25H12.6667C15.1939 17.25 17.25 15.1939 17.25 12.6667V5.33333C17.25 2.80608 15.1939 0.75 12.6667 0.75H5.33333ZM5.33333 2.58333H12.6667C14.1828 2.58333 15.4167 3.81717 15.4167 5.33333V12.6667C15.4167 14.1828 14.1828 15.4167 12.6667 15.4167H5.33333C3.81717 15.4167 2.58333 14.1828 2.58333 12.6667V5.33333C2.58333 3.81717 3.81717 2.58333 5.33333 2.58333ZM13.5833 3.5C13.3402 3.5 13.1071 3.59658 12.9352 3.76849C12.7632 3.94039 12.6667 4.17355 12.6667 4.41667C12.6667 4.65978 12.7632 4.89294 12.9352 5.06485C13.1071 5.23676 13.3402 5.33333 13.5833 5.33333C13.8264 5.33333 14.0596 5.23676 14.2315 5.06485C14.4034 4.89294 14.5 4.65978 14.5 4.41667C14.5 4.17355 14.4034 3.94039 14.2315 3.76849C14.0596 3.59658 13.8264 3.5 13.5833 3.5ZM9 4.41667C6.47275 4.41667 4.41667 6.47275 4.41667 9C4.41667 11.5273 6.47275 13.5833 9 13.5833C11.5273 13.5833 13.5833 11.5273 13.5833 9C13.5833 6.47275 11.5273 4.41667 9 4.41667ZM9 6.25C10.5162 6.25 11.75 7.48383 11.75 9C11.75 10.5162 10.5162 11.75 9 11.75C7.48383 11.75 6.25 10.5162 6.25 9C6.25 7.48383 7.48383 6.25 9 6.25Z" fill="white"/>
</svg>
