<svg width="217" height="27" viewBox="0 0 217 27" fill="none" xmlns="http://www.w3.org/2000/svg">
<path d="M2.98023e-08 1.32H11.8C15.72 1.32 17.68 2.97333 17.68 6.28V22.04C17.68 25.3467 15.72 27 11.8 27H2.98023e-08V1.32ZM10.68 21.52V6.8C10.68 6.21333 10.3467 5.92 9.68 5.92H7V22.4H9.68C10.3467 22.4 10.68 22.1067 10.68 21.52ZM26.6519 7.04H31.5319C35.4519 7.04 37.4119 8.69333 37.4119 12V18.8H27.2119V21.44C27.2119 22.0267 27.5452 22.32 28.2119 22.32H29.9719C30.6385 22.32 30.9719 22 30.9719 21.36V20.24H37.4119V22.04C37.4119 25.3467 35.4519 27 31.5319 27H26.6519C22.7319 27 20.7719 25.3467 20.7719 22.04V12C20.7719 8.69333 22.7319 7.04 26.6519 7.04ZM27.2119 15.12H30.9719V12.6C30.9719 12.0133 30.6385 11.72 29.9719 11.72H28.2119C27.5452 11.72 27.2119 12.0133 27.2119 12.6V15.12ZM56.04 14.76H49.48V12.92C49.48 12.3333 49.1467 12.04 48.48 12.04H47.8C47.1333 12.04 46.8 12.3333 46.8 12.92V21.12C46.8 21.7067 47.1333 22 47.8 22H48.48C49.1467 22 49.48 21.7067 49.48 21.12V19.28H56.04V22.04C56.04 25.3467 54.08 27 50.16 27H45.88C41.96 27 40 25.3467 40 22.04V12C40 8.69333 41.96 7.04 45.88 7.04H50.16C54.08 7.04 56.04 8.69333 56.04 12V14.76ZM64.3269 7.04H69.4069C71.4335 7.04 72.8869 7.46667 73.7669 8.32C74.6469 9.17333 75.0869 10.4 75.0869 12V22.04C75.0869 23.64 74.6469 24.8667 73.7669 25.72C72.8869 26.5733 71.4335 27 69.4069 27H64.3269C62.3002 27 60.8469 26.5733 59.9669 25.72C59.0869 24.8667 58.6469 23.64 58.6469 22.04V12C58.6469 10.4 59.0869 9.17333 59.9669 8.32C60.8469 7.46667 62.3002 7.04 64.3269 7.04ZM68.4069 21.4V12.64C68.4069 12.0533 68.0735 11.76 67.4069 11.76H66.3269C65.6602 11.76 65.3269 12.0533 65.3269 12.64V21.4C65.3269 21.9867 65.6602 22.28 66.3269 22.28H67.4069C68.0735 22.28 68.4069 21.9867 68.4069 21.4ZM87.6647 0.239999H94.4647V27H87.7847V24.44C87.4114 26.1467 86.198 27 84.1447 27H83.4247C79.878 27 78.1047 25.3467 78.1047 22.04V12C78.1047 8.69333 79.878 7.04 83.4247 7.04H84.1447C85.9847 7.04 87.158 7.76 87.6647 9.2V0.239999ZM85.9047 22H86.5847C87.3047 22 87.6647 21.6 87.6647 20.8V13.24C87.6647 12.44 87.3047 12.04 86.5847 12.04H85.9047C85.238 12.04 84.9047 12.3333 84.9047 12.92V21.12C84.9047 21.7067 85.238 22 85.9047 22ZM103.525 7.04H108.405C112.325 7.04 114.285 8.69333 114.285 12V18.8H104.085V21.44C104.085 22.0267 104.419 22.32 105.085 22.32H106.845C107.512 22.32 107.845 22 107.845 21.36V20.24H114.285V22.04C114.285 25.3467 112.325 27 108.405 27H103.525C99.6053 27 97.6453 25.3467 97.6453 22.04V12C97.6453 8.69333 99.6053 7.04 103.525 7.04ZM104.085 15.12H107.845V12.6C107.845 12.0133 107.512 11.72 106.845 11.72H105.085C104.419 11.72 104.085 12.0133 104.085 12.6V15.12ZM128.273 6.84H128.873V12.76H126.593C124.913 12.76 124.073 13.6667 124.073 15.48V27H117.273V7.04H123.953V10.12C124.167 9.10667 124.647 8.30667 125.393 7.72C126.14 7.13333 127.1 6.84 128.273 6.84Z" fill="white"/>
<path d="M137.312 27H131.072V1.32H138.712L142.872 15.04L147.032 1.32H154.672V27H148.472V10.68L145.272 21.44H140.472L137.312 10.76V27ZM163.749 7.04H168.829C170.855 7.04 172.309 7.46667 173.189 8.32C174.069 9.17333 174.509 10.4 174.509 12V22.04C174.509 23.64 174.069 24.8667 173.189 25.72C172.309 26.5733 170.855 27 168.829 27H163.749C161.722 27 160.269 26.5733 159.389 25.72C158.509 24.8667 158.069 23.64 158.069 22.04V12C158.069 10.4 158.509 9.17333 159.389 8.32C160.269 7.46667 161.722 7.04 163.749 7.04ZM167.829 21.4V12.64C167.829 12.0533 167.495 11.76 166.829 11.76H165.749C165.082 11.76 164.749 12.0533 164.749 12.64V21.4C164.749 21.9867 165.082 22.28 165.749 22.28H166.829C167.495 22.28 167.829 21.9867 167.829 21.4ZM188.927 6.84H189.527V12.76H187.247C185.567 12.76 184.727 13.6667 184.727 15.48V27H177.927V7.04H184.607V10.12C184.82 9.10667 185.3 8.30667 186.047 7.72C186.793 7.13333 187.753 6.84 188.927 6.84ZM200.325 21.72V20.12C200.325 19.5333 199.992 19.24 199.325 19.24H196.885C193.045 19.24 191.125 17.6 191.125 14.32V12C191.125 8.69333 193.085 7.04 197.005 7.04H200.725C204.645 7.04 206.605 8.69333 206.605 12V13.68H200.125V12.32C200.125 11.7333 199.792 11.44 199.125 11.44H198.725C198.058 11.44 197.725 11.7333 197.725 12.32V14.08C197.725 14.6667 198.058 14.96 198.725 14.96H201.165C203.218 14.96 204.685 15.3867 205.565 16.24C206.472 17.0667 206.925 18.2667 206.925 19.84V22.04C206.925 25.3467 204.965 27 201.045 27H197.125C193.205 27 191.245 25.3467 191.245 22.04V20.4H197.845V21.72C197.845 22.3067 198.178 22.6 198.845 22.6H199.325C199.992 22.6 200.325 22.3067 200.325 21.72ZM209.937 27V20.44H216.817V27H209.937Z" fill="#32E0C4"/>
</svg>
