<svg width="261" height="33" viewBox="0 0 261 33" fill="none" xmlns="http://www.w3.org/2000/svg">
<path d="M0.4 2.184H14.56C19.264 2.184 21.616 4.168 21.616 8.136V27.048C21.616 31.016 19.264 33 14.56 33H0.4V2.184ZM13.216 26.424V8.76C13.216 8.056 12.816 7.704 12.016 7.704H8.8V27.48H12.016C12.816 27.48 13.216 27.128 13.216 26.424ZM32.3822 9.048H38.2383C42.9423 9.048 45.2943 11.032 45.2943 15V23.16H33.0543V26.328C33.0543 27.032 33.4543 27.384 34.2542 27.384H36.3663C37.1663 27.384 37.5663 27 37.5663 26.232V24.888H45.2943V27.048C45.2943 31.016 42.9423 33 38.2383 33H32.3822C27.6782 33 25.3262 31.016 25.3262 27.048V15C25.3262 11.032 27.6782 9.048 32.3822 9.048ZM33.0543 18.744H37.5663V15.72C37.5663 15.016 37.1663 14.664 36.3663 14.664H34.2542C33.4543 14.664 33.0543 15.016 33.0543 15.72V18.744ZM67.648 18.312H59.776V16.104C59.776 15.4 59.376 15.048 58.576 15.048H57.76C56.96 15.048 56.56 15.4 56.56 16.104V25.944C56.56 26.648 56.96 27 57.76 27H58.576C59.376 27 59.776 26.648 59.776 25.944V23.736H67.648V27.048C67.648 31.016 65.296 33 60.592 33H55.456C50.752 33 48.4 31.016 48.4 27.048V15C48.4 11.032 50.752 9.048 55.456 9.048H60.592C65.296 9.048 67.648 11.032 67.648 15V18.312ZM77.5923 9.048H83.6883C86.1203 9.048 87.8643 9.56 88.9203 10.584C89.9763 11.608 90.5043 13.08 90.5043 15V27.048C90.5043 28.968 89.9763 30.44 88.9203 31.464C87.8643 32.488 86.1203 33 83.6883 33H77.5923C75.1603 33 73.4163 32.488 72.3603 31.464C71.3043 30.44 70.7763 28.968 70.7763 27.048V15C70.7763 13.08 71.3043 11.608 72.3603 10.584C73.4163 9.56 75.1603 9.048 77.5923 9.048ZM82.4883 26.28V15.768C82.4883 15.064 82.0883 14.712 81.2883 14.712H79.9923C79.1923 14.712 78.7923 15.064 78.7923 15.768V26.28C78.7923 26.984 79.1923 27.336 79.9923 27.336H81.2883C82.0883 27.336 82.4883 26.984 82.4883 26.28ZM105.598 0.887999H113.758V33H105.742V29.928C105.294 31.976 103.838 33 101.374 33H100.51C96.2536 33 94.1256 31.016 94.1256 27.048V15C94.1256 11.032 96.2536 9.048 100.51 9.048H101.374C103.582 9.048 104.99 9.912 105.598 11.64V0.887999ZM103.486 27H104.302C105.166 27 105.598 26.52 105.598 25.56V16.488C105.598 15.528 105.166 15.048 104.302 15.048H103.486C102.686 15.048 102.286 15.4 102.286 16.104V25.944C102.286 26.648 102.686 27 103.486 27ZM124.63 9.048H130.486C135.19 9.048 137.542 11.032 137.542 15V23.16H125.302V26.328C125.302 27.032 125.702 27.384 126.502 27.384H128.614C129.414 27.384 129.814 27 129.814 26.232V24.888H137.542V27.048C137.542 31.016 135.19 33 130.486 33H124.63C119.926 33 117.574 31.016 117.574 27.048V15C117.574 11.032 119.926 9.048 124.63 9.048ZM125.302 18.744H129.814V15.72C129.814 15.016 129.414 14.664 128.614 14.664H126.502C125.702 14.664 125.302 15.016 125.302 15.72V18.744ZM154.328 8.808H155.048V15.912H152.312C150.296 15.912 149.288 17 149.288 19.176V33H141.128V9.048H149.144V12.744C149.4 11.528 149.976 10.568 150.872 9.864C151.768 9.16 152.92 8.808 154.328 8.808Z" fill="white"/>
<path d="M165.174 33H157.686V2.184H166.854L171.846 18.648L176.838 2.184H186.006V33H178.566V13.416L174.726 26.328H168.966L165.174 13.512V33ZM196.898 9.048H202.994C205.426 9.048 207.17 9.56 208.226 10.584C209.282 11.608 209.81 13.08 209.81 15V27.048C209.81 28.968 209.282 30.44 208.226 31.464C207.17 32.488 205.426 33 202.994 33H196.898C194.466 33 192.722 32.488 191.666 31.464C190.61 30.44 190.082 28.968 190.082 27.048V15C190.082 13.08 190.61 11.608 191.666 10.584C192.722 9.56 194.466 9.048 196.898 9.048ZM201.794 26.28V15.768C201.794 15.064 201.394 14.712 200.594 14.712H199.298C198.498 14.712 198.098 15.064 198.098 15.768V26.28C198.098 26.984 198.498 27.336 199.298 27.336H200.594C201.394 27.336 201.794 26.984 201.794 26.28ZM227.112 8.808H227.832V15.912H225.096C223.08 15.912 222.072 17 222.072 19.176V33H213.912V9.048H221.928V12.744C222.184 11.528 222.76 10.568 223.656 9.864C224.552 9.16 225.704 8.808 227.112 8.808ZM240.79 26.664V24.744C240.79 24.04 240.39 23.688 239.59 23.688H236.662C232.054 23.688 229.75 21.72 229.75 17.784V15C229.75 11.032 232.102 9.048 236.806 9.048H241.27C245.974 9.048 248.326 11.032 248.326 15V17.016H240.55V15.384C240.55 14.68 240.15 14.328 239.35 14.328H238.87C238.07 14.328 237.67 14.68 237.67 15.384V17.496C237.67 18.2 238.07 18.552 238.87 18.552H241.798C244.262 18.552 246.022 19.064 247.078 20.088C248.166 21.08 248.71 22.52 248.71 24.408V27.048C248.71 31.016 246.358 33 241.654 33H236.95C232.246 33 229.894 31.016 229.894 27.048V25.08H237.814V26.664C237.814 27.368 238.214 27.72 239.014 27.72H239.59C240.39 27.72 240.79 27.368 240.79 26.664ZM252.325 33V25.128H260.581V33H252.325Z" fill="#32E0C4"/>
</svg>
