<svg width="19" height="19" viewBox="0 0 19 19" fill="none" xmlns="http://www.w3.org/2000/svg">
<path d="M17.4442 15.2574L12.4064 9.50018L17.4442 3.74256C18.3003 2.88612 18.3003 1.49805 17.4442 0.641969C16.5874 -0.214111 15.1994 -0.213746 14.3437 0.642334L9.49984 6.17854L4.65603 0.642334C3.79995 -0.21338 2.41225 -0.213746 1.55544 0.641969C0.699356 1.49841 0.699356 2.88648 1.55544 3.74256L6.59326 9.50018L1.55544 15.2574C0.699356 16.1135 0.699356 17.5016 1.55507 18.3577C2.41152 19.2141 3.79958 19.2141 4.65603 18.3577L9.49984 12.8215L14.3437 18.3577C15.2005 19.2141 16.5885 19.2141 17.4446 18.3577C18.3003 17.5016 18.3003 16.1135 17.4442 15.2574Z" fill="white"/>
</svg>
