<svg width="16" height="16" viewBox="0 0 16 16" fill="none" xmlns="http://www.w3.org/2000/svg">
<path d="M8 0C3.582 0 0 3.582 0 8C0 12.418 3.582 16 8 16C12.418 16 16 12.418 16 8C16 3.582 12.418 0 8 0ZM4.99733 3.602C5.55867 3.602 5.93267 3.976 5.93267 4.47467C5.93267 4.97333 5.55867 5.34733 4.93533 5.34733C4.374 5.348 4 4.97333 4 4.47467C4 3.976 4.374 3.602 4.99733 3.602ZM6 11.3333H4V6H6V11.3333ZM12.6667 11.3333H10.784V8.41867C10.784 7.61267 10.282 7.42667 10.094 7.42667C9.906 7.42667 9.278 7.55067 9.278 8.41867C9.278 8.54267 9.278 11.3333 9.278 11.3333H7.33333V6H9.27867V6.744C9.52933 6.31 10.0313 6 10.9727 6C11.914 6 12.6667 6.744 12.6667 8.41867V11.3333Z" fill="white"/>
</svg>
