<svg width="18" height="16" viewBox="0 0 18 16" fill="none" xmlns="http://www.w3.org/2000/svg">
<path d="M17.6667 2.62467C17.0287 2.908 16.3433 3.09867 15.624 3.18467C16.3587 2.74467 16.922 2.048 17.1873 1.21734C16.5007 1.62467 15.7393 1.92067 14.9287 2.08067C14.28 1.38934 13.356 0.957336 12.3333 0.957336C10.3693 0.957336 8.77734 2.55 8.77734 4.51334C8.77734 4.79201 8.80934 5.06401 8.86934 5.32334C5.914 5.17534 3.294 3.75934 1.53934 1.60734C1.23401 2.13267 1.05867 2.74334 1.05867 3.396C1.05867 4.62934 1.686 5.71801 2.64 6.35534C2.05734 6.33667 1.50867 6.17667 1.02934 5.91067C1.02934 5.92601 1.02934 5.94001 1.02934 5.95534C1.02934 7.67867 2.25467 9.11601 3.882 9.44201C3.584 9.52334 3.26934 9.56668 2.94467 9.56668C2.716 9.56668 2.49267 9.54401 2.276 9.50334C2.72867 10.916 4.042 11.9447 5.598 11.9733C4.38134 12.9273 2.848 13.496 1.18134 13.496C0.894672 13.496 0.611339 13.4793 0.332672 13.446C1.90667 14.4547 3.77534 15.0433 5.784 15.0433C12.3253 15.0433 15.9013 9.62467 15.9013 4.92534C15.9013 4.77134 15.898 4.61801 15.8913 4.46534C16.5867 3.96334 17.19 3.33734 17.6667 2.62467Z" fill="white"/>
</svg>
